<svg width="106" height="22" viewBox="0 0 106 22" fill="none" xmlns="http://www.w3.org/2000/svg">
<g clip-path="url(#clip0_1_23)">
<path d="M38.5918 18.4896C37.5633 18.4896 36.6762 18.2647 35.9303 17.815C35.1889 17.3606 34.6168 16.7274 34.2137 15.915C33.8153 15.0981 33.616 14.1482 33.616 13.0651C33.616 11.9821 33.8153 11.0275 34.2137 10.2015C34.6168 9.37086 35.1773 8.72378 35.8955 8.26028C36.6181 7.79217 37.4614 7.55814 38.425 7.55814C38.9809 7.55814 39.53 7.64992 40.0719 7.83348C40.614 8.01705 41.1075 8.31535 41.5522 8.72837C41.9969 9.1368 42.3514 9.67833 42.6154 10.3529C42.8794 11.0275 43.0115 11.8582 43.0115 12.8449V13.5332H34.7835V12.1289H41.3438C41.3438 11.5324 41.2232 11 40.9824 10.5319C40.7461 10.0638 40.4079 9.69439 39.9677 9.42363C39.5323 9.15286 39.018 9.01749 38.425 9.01749C37.7717 9.01749 37.2065 9.17811 36.7293 9.49934C36.2569 9.81601 35.8931 10.229 35.6383 10.7384C35.3835 11.2478 35.2561 11.7939 35.2561 12.3767V13.3129C35.2561 14.1115 35.395 14.7884 35.6731 15.3436C35.9557 15.8943 36.3471 16.3142 36.8476 16.6034C37.3479 16.8879 37.9293 17.0302 38.5918 17.0302C39.0227 17.0302 39.4118 16.9705 39.7593 16.8512C40.1114 16.7273 40.4149 16.5437 40.6696 16.3005C40.9245 16.0527 41.1213 15.7452 41.2603 15.3781L42.8447 15.8186C42.678 16.351 42.3977 16.8191 42.0039 17.2229C41.6101 17.6221 41.1236 17.9342 40.5445 18.1591C39.9654 18.3794 39.3146 18.4896 38.5918 18.4896Z" fill="black"/>
<path d="M45.7287 18.2692V4.17133H47.4521V16.7548H54.0678V18.2692H45.7287Z" fill="black"/>
<path d="M56.514 18.2692V7.69582H58.154V18.2692H56.514ZM57.3479 5.93358C57.0283 5.93358 56.7526 5.82573 56.521 5.61003C56.294 5.39435 56.1805 5.13506 56.1805 4.83218C56.1805 4.52929 56.294 4.27001 56.521 4.0543C56.7526 3.83862 57.0283 3.73077 57.3479 3.73077C57.6676 3.73077 57.9409 3.83862 58.1679 4.0543C58.3996 4.27001 58.5154 4.52929 58.5154 4.83218C58.5154 5.13506 58.3996 5.39435 58.1679 5.61003C57.9409 5.82573 57.6676 5.93358 57.3479 5.93358Z" fill="black"/>
<path d="M65.8001 7.69581V9.07256H60.2683V7.69581H65.8001ZM61.8807 5.16258H63.5206V15.2404C63.5206 15.6993 63.5878 16.0435 63.7221 16.2729C63.8613 16.4978 64.0372 16.6493 64.2504 16.7273C64.4681 16.8007 64.6973 16.8374 64.9384 16.8374C65.1191 16.8374 65.2673 16.8283 65.3831 16.8099C65.4989 16.787 65.5915 16.7685 65.661 16.7548L65.9946 18.2141C65.8834 18.2555 65.7282 18.2967 65.529 18.338C65.3298 18.3839 65.0773 18.4069 64.7715 18.4069C64.3082 18.4069 63.8542 18.3082 63.4095 18.1109C62.9694 17.9135 62.6033 17.6131 62.3115 17.2092C62.0242 16.8054 61.8807 16.2959 61.8807 15.6809V5.16258Z" fill="black"/>
<path d="M68.2671 18.2692V7.69582H69.8514V9.3479H69.9905C70.2128 8.78344 70.5719 8.34517 71.0676 8.03311C71.5634 7.71646 72.1586 7.55814 72.8536 7.55814C73.5578 7.55814 74.1437 7.71646 74.6118 8.03311C75.0844 8.34517 75.4526 8.78344 75.7166 9.3479H75.8278C76.1011 8.80179 76.5113 8.36812 77.0579 8.04689C77.6045 7.72105 78.2601 7.55814 79.0245 7.55814C79.9789 7.55814 80.7596 7.85414 81.3664 8.44613C81.9734 9.03355 82.2769 9.94908 82.2769 11.1928V18.2692H80.6368V11.1928C80.6368 10.4126 80.4214 9.855 79.9905 9.52C79.5597 9.18499 79.0523 9.01749 78.4685 9.01749C77.718 9.01749 77.1367 9.24235 76.7243 9.69209C76.312 10.1372 76.1059 10.7017 76.1059 11.3855V18.2692H74.4379V11.0275C74.4379 10.4264 74.2411 9.9422 73.8473 9.57507C73.4536 9.20334 72.9463 9.01749 72.3254 9.01749C71.8991 9.01749 71.5007 9.12992 71.1301 9.35478C70.7641 9.57966 70.4677 9.89172 70.2406 10.291C70.0182 10.6856 69.907 11.1423 69.907 11.6608V18.2692H68.2671Z" fill="black"/>
<path d="M92.0023 13.9462V7.69582H93.6423V18.2692H92.0023V16.4795H91.8912C91.6411 17.0163 91.2518 17.473 90.7238 17.8494C90.1956 18.2211 89.5284 18.4069 88.7223 18.4069C88.0552 18.4069 87.4622 18.2623 86.9433 17.9733C86.4244 17.6795 86.0167 17.2389 85.7202 16.6516C85.4238 16.0596 85.2754 15.3138 85.2754 14.4143V7.69582H86.9154V14.3042C86.9154 15.0752 87.1333 15.6901 87.5687 16.149C88.0089 16.608 88.5694 16.8374 89.2504 16.8374C89.6581 16.8374 90.0728 16.7341 90.4943 16.5277C90.9206 16.3211 91.2772 16.0045 91.5646 15.5777C91.8565 15.1509 92.0023 14.6071 92.0023 13.9462Z" fill="black"/>
<path d="M104.207 10.0638L102.734 10.4768C102.641 10.2336 102.504 9.99727 102.324 9.76782C102.148 9.53377 101.907 9.34102 101.601 9.18958C101.295 9.03814 100.904 8.96242 100.427 8.96242C99.7734 8.96242 99.2291 9.11157 98.7936 9.40985C98.3628 9.70356 98.1474 10.0776 98.1474 10.5319C98.1474 10.9358 98.2956 11.2547 98.5921 11.4888C98.8886 11.7228 99.3519 11.9178 99.982 12.0739L101.566 12.4594C102.521 12.6888 103.232 13.0399 103.7 13.5126C104.168 13.9807 104.402 14.5841 104.402 15.323C104.402 15.9288 104.226 16.4703 103.873 16.9475C103.526 17.4249 103.04 17.8011 102.414 18.0765C101.789 18.3518 101.061 18.4896 100.232 18.4896C99.1434 18.4896 98.2423 18.2555 97.5288 17.7874C96.8154 17.3192 96.3636 16.6355 96.1736 15.736L97.7304 15.3505C97.8786 15.9196 98.1589 16.3464 98.5712 16.6309C98.9882 16.9154 99.5325 17.0577 100.204 17.0577C100.969 17.0577 101.576 16.8971 102.025 16.5758C102.479 16.25 102.706 15.8599 102.706 15.4056C102.706 15.0385 102.576 14.731 102.317 14.4832C102.057 14.2308 101.659 14.0426 101.122 13.9187L99.3426 13.5057C98.3651 13.2762 97.6469 12.9206 97.1883 12.4387C96.7343 11.9523 96.5073 11.3442 96.5073 10.6145C96.5073 10.0179 96.6764 9.49017 97.0146 9.03125C97.3574 8.57234 97.823 8.21209 98.4114 7.95051C99.0043 7.68892 99.6762 7.55814 100.427 7.55814C101.483 7.55814 102.312 7.78759 102.915 8.2465C103.521 8.70543 103.952 9.3112 104.207 10.0638Z" fill="black"/>
<path d="M17.3201 17.4964C15.7145 18.0709 14.2206 18.2675 12.8383 18.0862C11.461 17.8964 10.261 17.3741 9.23824 16.5197C8.22047 15.6565 7.44919 14.5052 6.92441 13.0658C6.39963 11.6264 6.2481 10.2465 6.4698 8.92615C6.69651 7.59711 7.25805 6.42408 8.15444 5.40706C9.05584 4.38133 10.2587 3.59942 11.763 3.06129C12.6308 2.75083 13.5323 2.56624 14.4674 2.5075C15.4025 2.44877 16.3172 2.5697 17.2116 2.87026C18.1038 3.16471 18.9195 3.68651 19.6586 4.43561C20.3977 5.18473 21.0063 6.21496 21.4844 7.52629L21.8179 8.44117L8.97372 13.036L8.29328 11.1696L18.5339 7.50618C18.2449 6.71329 17.7989 6.07305 17.196 5.58546C16.6003 5.09529 15.8934 4.79316 15.0751 4.6791C14.2641 4.56244 13.3958 4.66968 12.4701 5.00083C11.4503 5.36562 10.6459 5.89472 10.0566 6.58816C9.47236 7.27289 9.10477 8.02492 8.95384 8.84422C8.80289 9.66351 8.86863 10.4605 9.15103 11.2351L9.60465 12.4793C9.99156 13.5406 10.5365 14.3626 11.2395 14.9454C11.9475 15.5195 12.7621 15.8589 13.6832 15.9638C14.6022 16.0625 15.5787 15.9269 16.613 15.5569C17.2855 15.3163 17.8641 15.0197 18.3486 14.6671C18.8383 14.3058 19.223 13.8923 19.503 13.4268C19.7806 12.9552 19.9389 12.4365 19.9781 11.871L22.6649 11.5717C22.6625 12.3724 22.4518 13.151 22.0327 13.9076C21.6114 14.6582 21.0033 15.3446 20.2083 15.9668C19.411 16.583 18.4482 17.0929 17.3201 17.4964Z" fill="#FC7D23"/>
<path d="M3.51698 0.733353H0.59314V20.0417H3.51698V0.733353Z" fill="#006CB5"/>
<path d="M26.9077 0.733353H23.9839V20.0417H26.9077V0.733353Z" fill="#006CB5"/>
</g>
<defs>
<clipPath id="clip0_1_23">
<rect width="106" height="21" fill="white" transform="translate(0 0.5)"/>
</clipPath>
</defs>
</svg>
