<svg width="106" height="21" viewBox="0 0 106 21" fill="none" xmlns="http://www.w3.org/2000/svg">
<path d="M38.5918 17.9896C37.5632 17.9896 36.6761 17.7647 35.9302 17.315C35.1888 16.8606 34.6168 16.2274 34.2136 15.415C33.8152 14.5981 33.616 13.6482 33.616 12.5651C33.616 11.4821 33.8152 10.5275 34.2136 9.70149C34.6168 8.87086 35.1773 8.22378 35.8955 7.76028C36.6181 7.29217 37.4613 7.05814 38.4249 7.05814C38.9809 7.05814 39.53 7.14992 40.0719 7.33348C40.6139 7.51705 41.1074 7.81535 41.5521 8.22837C41.9968 8.6368 42.3513 9.17833 42.6154 9.85293C42.8794 10.5275 43.0115 11.3582 43.0115 12.3449V13.0332H34.7834V11.6289H41.3437C41.3437 11.0324 41.2232 10.5 40.9823 10.0319C40.746 9.56381 40.4078 9.19439 39.9676 8.92363C39.5322 8.65286 39.0179 8.51749 38.4249 8.51749C37.7717 8.51749 37.2064 8.67811 36.7293 8.99934C36.2568 9.31601 35.893 9.72903 35.6383 10.2384C35.3834 10.7478 35.256 11.2939 35.256 11.8767V12.8129C35.256 13.6115 35.395 14.2884 35.673 14.8436C35.9556 15.3943 36.347 15.8142 36.8475 16.1034C37.3478 16.3879 37.9292 16.5302 38.5918 16.5302C39.0226 16.5302 39.4117 16.4705 39.7592 16.3512C40.1113 16.2273 40.4148 16.0437 40.6695 15.8005C40.9244 15.5527 41.1213 15.2452 41.2602 14.8781L42.8447 15.3186C42.678 15.851 42.3977 16.3191 42.0038 16.7229C41.61 17.1221 41.1235 17.4342 40.5445 17.6591C39.9654 17.8794 39.3145 17.9896 38.5918 17.9896Z" fill="black"/>
<path d="M45.7288 17.7692V3.67133H47.4522V16.2548H54.0679V17.7692H45.7288Z" fill="black"/>
<path d="M56.514 17.7692V7.19582H58.1541V17.7692H56.514ZM57.348 5.43358C57.0284 5.43358 56.7526 5.32573 56.521 5.11003C56.294 4.89435 56.1805 4.63506 56.1805 4.33218C56.1805 4.02929 56.294 3.77001 56.521 3.5543C56.7526 3.33862 57.0284 3.23077 57.348 3.23077C57.6676 3.23077 57.941 3.33862 58.168 3.5543C58.3997 3.77001 58.5155 4.02929 58.5155 4.33218C58.5155 4.63506 58.3997 4.89435 58.168 5.11003C57.941 5.32573 57.6676 5.43358 57.348 5.43358Z" fill="black"/>
<path d="M65.8 7.19581V8.57256H60.2683V7.19581H65.8ZM61.8807 4.66258H63.5206V14.7404C63.5206 15.1993 63.5877 15.5435 63.7221 15.7729C63.8612 15.9978 64.0372 16.1493 64.2503 16.2273C64.468 16.3007 64.6973 16.3374 64.9383 16.3374C65.119 16.3374 65.2673 16.3283 65.3831 16.3099C65.4988 16.287 65.5915 16.2685 65.6609 16.2548L65.9946 17.7141C65.8834 17.7555 65.7281 17.7967 65.529 17.838C65.3297 17.8839 65.0773 17.9069 64.7715 17.9069C64.3082 17.9069 63.8542 17.8082 63.4095 17.6109C62.9694 17.4135 62.6032 17.1131 62.3115 16.7092C62.0242 16.3054 61.8807 15.7959 61.8807 15.1809V4.66258Z" fill="black"/>
<path d="M68.2671 17.7692V7.19582H69.8514V8.8479H69.9905C70.2128 8.28344 70.5719 7.84517 71.0676 7.53311C71.5634 7.21646 72.1586 7.05814 72.8536 7.05814C73.5578 7.05814 74.1437 7.21646 74.6118 7.53311C75.0844 7.84517 75.4526 8.28344 75.7166 8.8479H75.8278C76.1011 8.30179 76.5113 7.86812 77.0579 7.54689C77.6045 7.22105 78.2601 7.05814 79.0245 7.05814C79.9789 7.05814 80.7596 7.35414 81.3664 7.94613C81.9734 8.53355 82.2769 9.44908 82.2769 10.6928V17.7692H80.6368V10.6928C80.6368 9.91259 80.4214 9.355 79.9905 9.02C79.5597 8.68499 79.0523 8.51749 78.4685 8.51749C77.718 8.51749 77.1367 8.74235 76.7243 9.19209C76.312 9.63724 76.1059 10.2017 76.1059 10.8855V17.7692H74.4379V10.5275C74.4379 9.92636 74.2411 9.4422 73.8473 9.07507C73.4536 8.70334 72.9463 8.51749 72.3254 8.51749C71.8991 8.51749 71.5007 8.62992 71.1301 8.85478C70.7641 9.07966 70.4677 9.39172 70.2406 9.79098C70.0182 10.1856 69.907 10.6423 69.907 11.1608V17.7692H68.2671Z" fill="black"/>
<path d="M92.0023 13.4462V7.19582H93.6424V17.7692H92.0023V15.9795H91.8913C91.6411 16.5163 91.2518 16.973 90.7238 17.3494C90.1956 17.7211 89.5284 17.9069 88.7223 17.9069C88.0552 17.9069 87.4623 17.7623 86.9433 17.4733C86.4244 17.1795 86.0167 16.7389 85.7203 16.1516C85.4238 15.5596 85.2754 14.8138 85.2754 13.9143V7.19582H86.9155V13.8042C86.9155 14.5752 87.1333 15.1901 87.5687 15.649C88.0089 16.108 88.5694 16.3374 89.2504 16.3374C89.6581 16.3374 90.0728 16.2341 90.4943 16.0277C90.9206 15.8211 91.2773 15.5045 91.5646 15.0777C91.8565 14.6509 92.0023 14.1071 92.0023 13.4462Z" fill="black"/>
<path d="M104.207 9.56381L102.734 9.97685C102.641 9.73362 102.504 9.49727 102.324 9.26782C102.148 9.03377 101.907 8.84102 101.601 8.68958C101.295 8.53814 100.904 8.46242 100.427 8.46242C99.7733 8.46242 99.229 8.61157 98.7936 8.90985C98.3627 9.20356 98.1473 9.57759 98.1473 10.0319C98.1473 10.4358 98.2955 10.7547 98.592 10.9888C98.8885 11.2228 99.3518 11.4178 99.9819 11.5739L101.566 11.9594C102.521 12.1888 103.232 12.5399 103.7 13.0126C104.168 13.4807 104.402 14.0841 104.402 14.823C104.402 15.4288 104.226 15.9703 103.873 16.4475C103.526 16.9249 103.04 17.3011 102.414 17.5765C101.789 17.8518 101.061 17.9896 100.232 17.9896C99.1434 17.9896 98.2422 17.7555 97.5288 17.2874C96.8153 16.8192 96.3636 16.1355 96.1736 15.236L97.7303 14.8505C97.8786 15.4196 98.1589 15.8464 98.5711 16.1309C98.9881 16.4154 99.5325 16.5577 100.204 16.5577C100.969 16.5577 101.576 16.3971 102.025 16.0758C102.479 15.75 102.706 15.3599 102.706 14.9056C102.706 14.5385 102.576 14.231 102.317 13.9832C102.057 13.7308 101.659 13.5426 101.122 13.4187L99.3425 13.0057C98.365 12.7762 97.6468 12.4206 97.1882 11.9387C96.7342 11.4523 96.5072 10.8442 96.5072 10.1145C96.5072 9.51793 96.6764 8.99017 97.0146 8.53125C97.3574 8.07234 97.8229 7.71209 98.4113 7.45051C99.0043 7.18892 99.6762 7.05814 100.427 7.05814C101.483 7.05814 102.312 7.28759 102.915 7.7465C103.521 8.20543 103.952 8.8112 104.207 9.56381Z" fill="black"/>
<path d="M17.32 16.9964C15.7144 17.5709 14.2205 17.7675 12.8383 17.5862C11.461 17.3964 10.261 16.8741 9.23818 16.0197C8.2204 15.1565 7.44913 14.0052 6.92435 12.5658C6.39957 11.1264 6.24804 9.7465 6.46974 8.42615C6.69645 7.09711 7.25799 5.92408 8.15437 4.90706C9.05578 3.88133 10.2586 3.09942 11.7629 2.56129C12.6307 2.25083 13.5322 2.06624 14.4673 2.0075C15.4024 1.94877 16.3171 2.0697 17.2116 2.37026C18.1038 2.66471 18.9195 3.18651 19.6585 3.93561C20.3976 4.68473 21.0062 5.71496 21.4843 7.02629L21.8178 7.94117L8.97366 12.536L8.29322 10.6696L18.5338 7.00618C18.2448 6.21329 17.7988 5.57305 17.1959 5.08546C16.6002 4.59529 15.8933 4.29316 15.0751 4.1791C14.2641 4.06244 13.3957 4.16968 12.47 4.50083C11.4503 4.86562 10.6458 5.39472 10.0565 6.08816C9.4723 6.77289 9.10471 7.52492 8.95378 8.34422C8.80283 9.16351 8.86857 9.96048 9.15097 10.7351L9.60458 11.9793C9.9915 13.0406 10.5365 13.8626 11.2394 14.4454C11.9474 15.0195 12.762 15.3589 13.6832 15.4638C14.6021 15.5625 15.5787 15.4269 16.6129 15.0569C17.2854 14.8163 17.864 14.5197 18.3485 14.1671C18.8383 13.8058 19.223 13.3923 19.503 12.9268C19.7805 12.4552 19.9389 11.9365 19.978 11.371L22.6649 11.0717C22.6624 11.8724 22.4517 12.651 22.0326 13.4076C21.6114 14.1582 21.0033 14.8446 20.2083 15.4668C19.411 16.083 18.4482 16.5929 17.32 16.9964Z" fill="#FC7D23"/>
<path d="M3.51698 0.233353H0.59314V19.5417H3.51698V0.233353Z" fill="#006CB5"/>
<path d="M26.9077 0.233353H23.9839V19.5417H26.9077V0.233353Z" fill="#006CB5"/>
</svg>
