<svg width="109" height="108" viewBox="0 0 109 108" fill="none" xmlns="http://www.w3.org/2000/svg">
<path d="M78.125 47.25V57.375C78.125 63.6407 75.6359 69.6498 71.2054 74.0804C66.7748 78.5109 60.7657 81 54.5 81C48.2343 81 42.2252 78.5109 37.7946 74.0804C33.3641 69.6498 30.875 63.6407 30.875 57.375V47.25H24.125V57.375C24.1285 64.8441 26.8839 72.05 31.8646 77.616C36.8453 83.1819 43.7022 86.7176 51.125 87.5475V94.5H37.625V101.25H71.375V94.5H57.875V87.5475C65.2978 86.7176 72.1547 83.1819 77.1354 77.616C82.1161 72.05 84.8715 64.8441 84.875 57.375V47.25H78.125Z" fill="#E30000"/>
<path d="M54.5 74.25C58.9755 74.25 63.2678 72.4721 66.4324 69.3074C69.5971 66.1428 71.375 61.8505 71.375 57.375V23.625C71.375 19.1495 69.5971 14.8572 66.4324 11.6926C63.2678 8.5279 58.9755 6.75 54.5 6.75C50.0245 6.75 45.7322 8.5279 42.5676 11.6926C39.4029 14.8572 37.625 19.1495 37.625 23.625V57.375C37.625 61.8505 39.4029 66.1428 42.5676 69.3074C45.7322 72.4721 50.0245 74.25 54.5 74.25Z" fill="#E30000"/>
</svg>
