<svg width="110" height="109" viewBox="0 0 110 109" fill="none" xmlns="http://www.w3.org/2000/svg">
<path d="M55 54.5C52.5021 54.5 50.363 53.6098 48.5827 51.8295C46.8023 50.0492 45.9137 47.9116 45.9167 45.4167C45.9167 42.9188 46.8069 40.7796 48.5872 38.9993C50.3675 37.219 52.5052 36.3303 55 36.3333C57.498 36.3333 59.6371 37.2235 61.4174 39.0038C63.1978 40.7842 64.0864 42.9218 64.0834 45.4167C64.0834 47.9146 63.1932 50.0537 61.4129 51.834C59.6325 53.6144 57.4949 54.503 55 54.5ZM30.0209 40.875C31.3077 40.875 32.3871 40.439 33.2591 39.567C34.1311 38.695 34.5656 37.6171 34.5625 36.3333C34.5625 35.0465 34.1265 33.9671 33.2545 33.0951C32.3825 32.2231 31.3047 31.7886 30.0209 31.7917C28.7341 31.7917 27.6547 32.2277 26.7827 33.0997C25.9107 33.9717 25.4762 35.0496 25.4792 36.3333C25.4792 37.6201 25.9152 38.6995 26.7872 39.5715C27.6592 40.4435 28.7371 40.878 30.0209 40.875ZM18.6667 95.375V86.2917H33.3136L35.698 76.7542C28.2042 75.4674 21.9791 71.89 17.0226 66.0222C12.0662 60.1544 9.5864 53.2859 9.58337 45.4167C9.58337 36.5604 12.6687 29.047 18.8393 22.8764C25.0099 16.7058 32.5218 13.622 41.375 13.625H68.625C77.4813 13.625 84.9947 16.7103 91.1653 22.8809C97.3359 29.0515 100.42 36.5634 100.417 45.4167C100.417 53.2889 97.937 60.1589 92.9775 66.0268C88.018 71.8946 81.7929 75.4704 74.3021 76.7542L76.6865 86.2917H91.3334V95.375H18.6667ZM55 63.5833C59.9959 63.5833 64.2726 61.8045 67.8303 58.2469C71.3879 54.6892 73.1667 50.4125 73.1667 45.4167C73.1667 40.4208 71.3879 36.1441 67.8303 32.5865C64.2726 29.0288 59.9959 27.25 55 27.25C50.0042 27.25 45.7275 29.0288 42.1698 32.5865C38.6122 36.1441 36.8334 40.4208 36.8334 45.4167C36.8334 50.4125 38.6122 54.6892 42.1698 58.2469C45.7275 61.8045 50.0042 63.5833 55 63.5833Z" fill="#E30000"/>
</svg>
