<svg width="1286" height="77" viewBox="0 0 1286 77" fill="none" xmlns="http://www.w3.org/2000/svg">
<g filter="url(#filter0_d_6_142)">
<rect width="1280" height="70" transform="translate(3)" fill="white"/>
<path d="M101.592 42.9895C100.563 42.9895 99.6761 42.7647 98.9302 42.315C98.1888 41.8605 97.6168 41.2273 97.2136 40.415C96.8152 39.5981 96.616 38.6481 96.616 37.5651C96.616 36.482 96.8152 35.5275 97.2136 34.7015C97.6168 33.8708 98.1773 33.2238 98.8955 32.7602C99.6181 32.2921 100.461 32.0581 101.425 32.0581C101.981 32.0581 102.53 32.1499 103.072 32.3334C103.614 32.517 104.107 32.8153 104.552 33.2283C104.997 33.6368 105.351 34.1783 105.615 34.8529C105.879 35.5275 106.011 36.3581 106.011 37.3448V38.0332H97.7834V36.6289H104.344C104.344 36.0323 104.223 35.5 103.982 35.0319C103.746 34.5638 103.408 34.1944 102.968 33.9236C102.532 33.6528 102.018 33.5175 101.425 33.5175C100.772 33.5175 100.206 33.6781 99.7293 33.9993C99.2568 34.316 98.893 34.729 98.6383 35.2384C98.3834 35.7478 98.256 36.2939 98.256 36.8767V37.8129C98.256 38.6114 98.395 39.2883 98.673 39.8436C98.9556 40.3943 99.347 40.8142 99.8475 41.1033C100.348 41.3879 100.929 41.5302 101.592 41.5302C102.023 41.5302 102.412 41.4704 102.759 41.3512C103.111 41.2273 103.415 41.0437 103.67 40.8005C103.924 40.5526 104.121 40.2452 104.26 39.878L105.845 40.3186C105.678 40.8509 105.398 41.3191 105.004 41.7229C104.61 42.1221 104.124 42.4342 103.544 42.659C102.965 42.8794 102.315 42.9895 101.592 42.9895Z" fill="black"/>
<path d="M108.729 42.7692V28.6713H110.452V41.2548H117.068V42.7692H108.729Z" fill="black"/>
<path d="M119.514 42.7692V32.1958H121.154V42.7692H119.514ZM120.348 30.4336C120.028 30.4336 119.753 30.3257 119.521 30.11C119.294 29.8943 119.181 29.6351 119.181 29.3322C119.181 29.0293 119.294 28.77 119.521 28.5543C119.753 28.3386 120.028 28.2308 120.348 28.2308C120.668 28.2308 120.941 28.3386 121.168 28.5543C121.4 28.77 121.515 29.0293 121.515 29.3322C121.515 29.6351 121.4 29.8943 121.168 30.11C120.941 30.3257 120.668 30.4336 120.348 30.4336Z" fill="black"/>
<path d="M128.8 32.1958V33.5726H123.268V32.1958H128.8ZM124.881 29.6626H126.521V39.7404C126.521 40.1993 126.588 40.5435 126.722 40.773C126.861 40.9978 127.037 41.1493 127.25 41.2274C127.468 41.3007 127.697 41.3374 127.938 41.3374C128.119 41.3374 128.267 41.3283 128.383 41.3099C128.499 41.287 128.591 41.2686 128.661 41.2548L128.995 42.7142C128.883 42.7555 128.728 42.7967 128.529 42.8381C128.33 42.8839 128.077 42.9069 127.772 42.9069C127.308 42.9069 126.854 42.8082 126.409 42.6109C125.969 42.4135 125.603 42.1131 125.312 41.7092C125.024 41.3054 124.881 40.7959 124.881 40.181V29.6626Z" fill="black"/>
<path d="M131.267 42.7692V32.1958H132.851V33.8479H132.99C133.213 33.2834 133.572 32.8451 134.068 32.5331C134.563 32.2164 135.159 32.0581 135.854 32.0581C136.558 32.0581 137.144 32.2164 137.612 32.5331C138.084 32.8451 138.453 33.2834 138.717 33.8479H138.828C139.101 33.3018 139.511 32.8681 140.058 32.5469C140.605 32.221 141.26 32.0581 142.024 32.0581C142.979 32.0581 143.76 32.3541 144.366 32.9461C144.973 33.5335 145.277 34.4491 145.277 35.6927V42.7692H143.637V35.6927C143.637 34.9126 143.421 34.355 142.991 34.02C142.56 33.685 142.052 33.5175 141.469 33.5175C140.718 33.5175 140.137 33.7423 139.724 34.1921C139.312 34.6372 139.106 35.2017 139.106 35.8855V42.7692H137.438V35.5275C137.438 34.9263 137.241 34.4422 136.847 34.075C136.454 33.7033 135.946 33.5175 135.325 33.5175C134.899 33.5175 134.501 33.6299 134.13 33.8548C133.764 34.0796 133.468 34.3917 133.241 34.7909C133.018 35.1856 132.907 35.6422 132.907 36.1608V42.7692H131.267Z" fill="black"/>
<path d="M155.002 38.4462V32.1958H156.642V42.7692H155.002V40.9795H154.891C154.641 41.5163 154.252 41.973 153.724 42.3494C153.196 42.7211 152.528 42.9069 151.722 42.9069C151.055 42.9069 150.462 42.7623 149.943 42.4733C149.424 42.1794 149.017 41.7389 148.72 41.1515C148.424 40.5595 148.275 39.8138 148.275 38.9143V32.1958H149.915V38.8042C149.915 39.5752 150.133 40.1901 150.569 40.649C151.009 41.1079 151.569 41.3373 152.25 41.3373C152.658 41.3373 153.073 41.2341 153.494 41.0276C153.921 40.8211 154.277 40.5045 154.565 40.0777C154.857 39.6509 155.002 39.1071 155.002 38.4462Z" fill="black"/>
<path d="M167.207 34.5638L165.734 34.9768C165.641 34.7336 165.504 34.4972 165.324 34.2678C165.148 34.0337 164.907 33.841 164.601 33.6895C164.295 33.5381 163.904 33.4624 163.427 33.4624C162.773 33.4624 162.229 33.6115 161.794 33.9098C161.363 34.2035 161.147 34.5776 161.147 35.0319C161.147 35.4357 161.296 35.7547 161.592 35.9887C161.888 36.2228 162.352 36.4178 162.982 36.5738L164.566 36.9593C165.521 37.1888 166.232 37.5398 166.7 38.0125C167.168 38.4806 167.402 39.0841 167.402 39.823C167.402 40.4287 167.226 40.9702 166.873 41.4475C166.526 41.9248 166.04 42.3011 165.414 42.5765C164.789 42.8518 164.061 42.9895 163.232 42.9895C162.143 42.9895 161.242 42.7555 160.529 42.2873C159.815 41.8192 159.364 41.1355 159.174 40.236L160.73 39.8505C160.879 40.4195 161.159 40.8463 161.571 41.1309C161.988 41.4153 162.532 41.5577 163.204 41.5577C163.969 41.5577 164.576 41.3971 165.025 41.0758C165.479 40.75 165.706 40.3599 165.706 39.9056C165.706 39.5384 165.576 39.231 165.317 38.9831C165.057 38.7307 164.659 38.5426 164.122 38.4187L162.342 38.0057C161.365 37.7762 160.647 37.4205 160.188 36.9387C159.734 36.4522 159.507 35.8442 159.507 35.1145C159.507 34.5179 159.676 33.9901 160.015 33.5312C160.357 33.0723 160.823 32.7121 161.411 32.4505C162.004 32.1889 162.676 32.0581 163.427 32.0581C164.483 32.0581 165.312 32.2876 165.915 32.7465C166.521 33.2054 166.952 33.8112 167.207 34.5638Z" fill="black"/>
<path d="M80.32 41.9964C78.7144 42.5709 77.2205 42.7675 75.8383 42.5862C74.461 42.3964 73.261 41.8741 72.2382 41.0197C71.2204 40.1565 70.4491 39.0052 69.9244 37.5658C69.3996 36.1264 69.248 34.7465 69.4697 33.4262C69.6965 32.0971 70.258 30.9241 71.1544 29.9071C72.0558 28.8813 73.2586 28.0994 74.7629 27.5613C75.6307 27.2508 76.5322 27.0662 77.4673 27.0075C78.4024 26.9488 79.3171 27.0697 80.2116 27.3703C81.1038 27.6647 81.9195 28.1865 82.6585 28.9356C83.3976 29.6847 84.0062 30.715 84.4843 32.0263L84.8178 32.9412L71.9737 37.536L71.2932 35.6696L81.5338 32.0062C81.2448 31.2133 80.7988 30.573 80.1959 30.0855C79.6002 29.5953 78.8933 29.2932 78.0751 29.1791C77.2641 29.0624 76.3957 29.1697 75.47 29.5008C74.4503 29.8656 73.6458 30.3947 73.0565 31.0882C72.4723 31.7729 72.1047 32.5249 71.9538 33.3442C71.8028 34.1635 71.8686 34.9605 72.151 35.7351L72.6046 36.9793C72.9915 38.0406 73.5365 38.8626 74.2394 39.4454C74.9474 40.0195 75.762 40.3589 76.6832 40.4638C77.6021 40.5625 78.5787 40.4269 79.6129 40.0569C80.2854 39.8163 80.864 39.5197 81.3485 39.1671C81.8383 38.8058 82.223 38.3923 82.503 37.9268C82.7805 37.4552 82.9389 36.9365 82.978 36.371L85.6649 36.0717C85.6624 36.8724 85.4517 37.651 85.0326 38.4076C84.6114 39.1582 84.0033 39.8446 83.2083 40.4668C82.411 41.083 81.4482 41.5929 80.32 41.9964Z" fill="#FC7D23"/>
<path d="M66.517 25.2333H63.5931V44.5417H66.517V25.2333Z" fill="#006CB5"/>
<path d="M89.9077 25.2333H86.9839V44.5417H89.9077V25.2333Z" fill="#006CB5"/>
</g>
<defs>
<filter id="filter0_d_6_142" x="0" y="0" width="1286" height="77" filterUnits="userSpaceOnUse" color-interpolation-filters="sRGB">
<feFlood flood-opacity="0" result="BackgroundImageFix"/>
<feColorMatrix in="SourceAlpha" type="matrix" values="0 0 0 0 0 0 0 0 0 0 0 0 0 0 0 0 0 0 127 0" result="hardAlpha"/>
<feOffset dy="4"/>
<feGaussianBlur stdDeviation="1.5"/>
<feComposite in2="hardAlpha" operator="out"/>
<feColorMatrix type="matrix" values="0 0 0 0 0.425299 0 0 0 0 0.425299 0 0 0 0 0.425299 0 0 0 0.25 0"/>
<feBlend mode="normal" in2="BackgroundImageFix" result="effect1_dropShadow_6_142"/>
<feBlend mode="normal" in="SourceGraphic" in2="effect1_dropShadow_6_142" result="shape"/>
</filter>
</defs>
</svg>
